<svg version="1.2" xmlns="http://www.w3.org/2000/svg" viewBox="0 0 1581 449" width="1581" height="449">
	<title>dfdfdf-svg</title>
	<style>
		.s0 { fill: #ffffff } 
		.s1 { fill: #eb5454 } 
	</style>
	<path id="Layer" fill-rule="evenodd" class="s0" d="m503.7 373.5v-225.5h48.9l71.8 143 70.8-143h48.9v225.5h-41.2v-155.6l-62.8 123.4h-32.5l-62.7-123.4v155.6zm322.1 3.8q-20.6 0-33.8-6.6c-8.8-4.3-15.3-10.2-19.6-17.5q-6.5-10.9-6.5-24.2 0-22.2 17.4-36 17.4-13.9 52.2-13.9h40.5v-3.8q0-16.5-9.3-24.2-9.4-7.7-23.2-7.7-12.5 0-21.9 5.9-9.3 6-11.6 17.6h-40.2q1.6-17.4 11.7-30.3 10.2-12.9 26.3-19.8c10.7-4.6 22.7-6.9 36-6.9 22.7 0 40.7 5.6 53.8 17q19.6 17.1 19.6 48.4v98.2h-35.1l-3.8-25.8q-7.1 12.9-19.8 21.3c-8.5 5.6-19.4 8.3-32.7 8.3zm9.3-32.2q17.7 0 27.5-11.6c6.6-7.7 10.7-17.2 12.4-28.6h-35q-16.5 0-23.5 5.9-7.1 6-7.1 14.7 0 9.4 7.1 14.5 7 5.1 18.6 5.1zm127.5-156.2q-11.3 0-18.5-6.7-7.3-6.8-7.3-17.1 0-10.3 7.3-16.9 7.2-6.6 18.5-6.6 11.2 0 18.5 6.6 7.2 6.6 7.2 16.9 0 10.3-7.2 17.1-7.3 6.7-18.5 6.7zm-20.6 24.8h41.2v159.8h-41.2zm68.2-72.2h41.2v231.9h-41.2zm134.8 184.3q-11.6 0-21.5-2.6l-11.9 11.9c3.6 1.9 8.5 3.5 14.8 4.8 6.2 1.3 16.3 2.6 30.2 3.9q31.9 2.9 46.4 15.1 14.4 12.3 14.4 33.8c0 9.5-2.5 18.4-7.7 26.9-5.1 8.5-13.1 15.4-23.8 20.6q-16.1 7.9-41.2 7.9-34.1 0-55-12.7-20.9-12.7-20.9-38.1c0-14.4 6.9-26.9 20.9-37.4q-6.5-2.9-11.1-6.1-4.7-3.2-8.2-6.8v-7.4l28-29.6q-18.7-16.4-18.7-42.2c0-10.8 2.6-20.5 7.9-29.3q7.9-13.2 22.4-21 14.5-7.7 35-7.7 13.6 0 25.1 3.9h60.5v25.1l-27.3 1.9q6.4 12.3 6.4 27.1c0 10.7-2.6 20.5-7.7 29.3q-7.7 13.2-22.4 20.9c-9.7 5.2-21.2 7.8-34.6 7.8zm-38.6 67.3q0 11.9 11.1 17.8 11.1 6 27.2 6c10.8 0 18.7-2.1 25.1-6.3q9.7-6.3 9.7-16.9 0-8.7-6.3-14.5-6.3-5.8-24.9-7.1c-8.9-0.6-17-1.6-24.5-2.9-6.2 3.5-10.7 7.2-13.4 11.3q-4 6.1-4 12.6zm38.6-98.9q12.6 0 20.8-6.8 8.2-6.7 8.2-19.3 0-12.6-8.2-19.3-8.2-6.8-20.8-6.8-13.2 0-21.2 6.8-8 6.7-8 19.3 0 12.6 8 19.3 8 6.8 21.2 6.8zm159.3 83.1q-29.9 0-46.1-18.7c-10.9-12.4-16.3-30.7-16.3-54.7v-90.2h40.9v86.3c0 13.7 2.8 24.3 8.3 31.5 5.6 7.3 14.4 11 26.4 11q17.1 0 28.2-12.2c7.4-8.2 11.1-19.6 11.1-34.2v-82.4h41.2v159.7h-36.4l-3.2-27c-4.9 9.4-12.1 16.9-21.4 22.5q-14 8.4-32.7 8.4zm119.8-3.9v-159.7h36.3l3.2 27c5-9.4 12.1-16.9 21.4-22.5q14-8.4 33-8.4 29.6 0 46 18.7c11 12.4 16.5 30.7 16.5 54.7v90.2h-41.2v-86.3c0-13.7-2.8-24.3-8.4-31.6q-8.4-10.9-26.1-10.9c-11.8 0-21.1 4.1-28.5 12.2-7.4 8.2-11.1 19.6-11.1 34.2v82.4zm-891.5-273.2q-8.7 0-15.4-3-6.6-2.9-10.4-8.5-3.8-5.6-4-13.6h15.2c0.2 3.7 1.5 6.8 4 9.3 2.5 2.5 6 3.8 10.4 3.8q5.8 0 9.2-2.8 3.3-2.8 3.3-7.4c0-3-1-5.7-2.9-7.5q-3-2.7-8-4.4-4.9-1.7-10.5-3.6c-6.1-2.1-10.8-4.8-14-8.2q-4.7-4.9-4.7-13.2-0.1-7 3.3-12 3.4-5 9.4-7.7 6-2.8 13.8-2.8c5.2 0 9.9 0.9 13.9 2.8q6 2.8 9.4 7.9 3.5 5.1 3.7 12.1h-15.4c-0.1-2.8-1.2-5.3-3.3-7.4q-3.1-3.2-8.6-3.2-4.7-0.1-7.9 2.3-3.2 2.4-3.2 7 0 4 2.5 6.3c1.6 1.5 3.9 2.8 6.7 3.9q4.3 1.5 9.9 3.3 5.8 2.1 10.7 4.8c3.2 1.8 5.8 4.2 7.7 7.2 2 2.9 3 6.7 3 11.4q0 6.2-3.2 11.5c-2.1 3.6-5.2 6.4-9.3 8.5q-6.2 3.2-15.2 3.2zm62.8-80.3h14.4v79h-14.4zm52.3 78.9v-78.9h14.4l37 55.5v-55.5h14.4v78.9h-14.4l-37-55.5v55.5zm139.4 1.3q-11.9 0-20.5-5.1c-5.7-3.4-10.1-8.2-13.2-14.3q-4.6-9.2-4.6-21.3 0-12 4.6-21.3c3.1-6.1 7.5-10.9 13.2-14.4q8.6-5.2 20.5-5.2 14.2 0 23.3 7.1c6 4.7 9.8 11.2 11.3 19.7h-15.9q-1.5-6.4-6.2-10.1-4.8-3.6-12.7-3.6-10.9 0-17.1 7.4-6.2 7.4-6.2 20.4 0 13 6.2 20.4 6.2 7.3 17.1 7.3c5.3 0 9.5-1.1 12.7-3.4q4.7-3.4 6.2-9.5h15.9c-1.5 8.1-5.3 14.4-11.3 19q-9.1 6.9-23.3 6.9zm69.9-1.3v-78.9h14.4v32.8h35.3v-32.8h14.4v78.9h-14.4v-34.4h-35.3v34.4z"/>
	<path id="Layer" class="s1" d="m196.2 224.2c-15.4 0-27.9-12.4-27.9-27.9 0-15.4 12.5-27.9 27.9-27.9 15.4 0 27.9 12.5 27.9 27.9 0 15.5-12.5 27.9-27.9 27.9z"/>
	<path id="Layer" fill-rule="evenodd" class="s1" d="m349.6 196.3c0-84.7-68.7-153.5-153.4-153.5-84.7 0-153.4 68.8-153.4 153.5 0 84.8 68.7 153.6 153.4 153.6 42.4 0 80.7-17.2 108.5-45l29.5 29.6c-35.3 35.4-84.1 57.2-138 57.2-107.8 0-195.2-87.5-195.2-195.4 0-107.8 87.4-195.4 195.2-195.4 107.8 0 195.2 87.5 195.2 195.4 0 16.1-6.1 32.1-18.4 44.4-21.3 21.3-54.2 24.1-78.5 8.3-18.8 35.1-55.8 59-98.3 59-61.6 0-111.6-50-111.6-111.7 0-61.6 50-111.6 111.6-111.6 61.6 0 111.5 50 111.5 111.6 0 11.6 9.4 21 20.9 21 11.6 0 21-9.4 21-21zm-83.7 0c0-38.5-31.2-69.7-69.7-69.7-38.6 0-69.7 31.2-69.7 69.7 0 38.6 31.1 69.8 69.7 69.8 38.5 0 69.7-31.2 69.7-69.8z"/>
</svg>